<?xml version="1.0" encoding="UTF-8" standalone="no"?>
<!-- Created with Inkscape (http://www.inkscape.org/) -->

<svg
   xmlns:dc="http://purl.org/dc/elements/1.1/"
   xmlns:cc="http://creativecommons.org/ns#"
   xmlns:rdf="http://www.w3.org/1999/02/22-rdf-syntax-ns#"
   xmlns:svg="http://www.w3.org/2000/svg"
   xmlns="http://www.w3.org/2000/svg"
   xmlns:xlink="http://www.w3.org/1999/xlink"
   xmlns:sodipodi="http://sodipodi.sourceforge.net/DTD/sodipodi-0.dtd"
   xmlns:inkscape="http://www.inkscape.org/namespaces/inkscape"
   id="svg2"
   sodipodi:docname="Light-Bulbs.svg"
   inkscape:export-filename="C:\Documents and Settings\Dan\Skrivbord\Clipart egna (InkScape)\Original\Kanske Upload\Glödlampa.png"
   viewBox="0 0 215.69 162.88"
   sodipodi:version="0.32"
   inkscape:export-xdpi="310"
   version="1.0"
   inkscape:output_extension="org.inkscape.output.svg.inkscape"
   inkscape:export-ydpi="310"
   inkscape:version="0.91 r13725">
  <defs
     id="defs4">
    <linearGradient
       inkscape:collect="always"
       id="linearGradient4204">
      <stop
         offset="0"
         style="stop-color:#fefef9;stop-opacity:0.31390134"
         id="stop4206" />
      <stop
         offset="1"
         style="stop-color:#3d3d3d;stop-opacity:.53589"
         id="stop4208" />
    </linearGradient>
    <linearGradient
       id="linearGradient4115"
       inkscape:collect="always">
      <stop
         id="stop4117"
         style="stop-color:#959595;stop-opacity:.30622"
         offset="0" />
      <stop
         id="stop4119"
         style="stop-color:#3d3d3d;stop-opacity:.53589"
         offset="1" />
    </linearGradient>
    <linearGradient
       id="linearGradient4015"
       inkscape:collect="always">
      <stop
         id="stop4017"
         style="stop-color:#000000"
         offset="0" />
      <stop
         id="stop4019"
         style="stop-color:#000000;stop-opacity:0"
         offset="1" />
    </linearGradient>
    <linearGradient
       id="linearGradient3993"
       inkscape:collect="always">
      <stop
         id="stop3995"
         style="stop-color:#585858"
         offset="0" />
      <stop
         id="stop3997"
         style="stop-color:#434343"
         offset="1" />
    </linearGradient>
    <linearGradient
       id="linearGradient3951"
       inkscape:collect="always">
      <stop
         id="stop3953"
         style="stop-color:#808080"
         offset="0" />
      <stop
         id="stop3955"
         style="stop-color:#5b5b5b"
         offset="1" />
    </linearGradient>
    <linearGradient
       id="linearGradient4252"
       y2="707.61"
       xlink:href="#linearGradient3951"
       gradientUnits="userSpaceOnUse"
       x2="371.8"
       gradientTransform="translate(-111.02)"
       y1="707.61"
       x1="340.55"
       inkscape:collect="always" />
    <linearGradient
       id="linearGradient4254"
       y2="700.68"
       xlink:href="#linearGradient4015"
       gradientUnits="userSpaceOnUse"
       x2="425.3"
       gradientTransform="translate(-179.78)"
       y1="686.33"
       x1="425.3"
       inkscape:collect="always" />
    <linearGradient
       id="linearGradient4256"
       y2="127.11"
       xlink:href="#linearGradient3993"
       gradientUnits="userSpaceOnUse"
       x2="140.99"
       gradientTransform="translate(84.033 580)"
       y1="127.11"
       x1="178.75"
       inkscape:collect="always" />
    <linearGradient
       id="linearGradient4260"
       y2="693.88"
       xlink:href="#linearGradient4015"
       gradientUnits="userSpaceOnUse"
       x2="353.86"
       gradientTransform="translate(-111.02)"
       y1="690.18"
       x1="353.86"
       inkscape:collect="always" />
    <linearGradient
       id="linearGradient4262"
       y2="640.86"
       xlink:href="#linearGradient4115"
       gradientUnits="userSpaceOnUse"
       x2="388.55"
       gradientTransform="translate(-111.02)"
       y1="614.86"
       x1="316.3"
       inkscape:collect="always" />
    <linearGradient
       id="linearGradient4264"
       y2="652.84"
       gradientUnits="userSpaceOnUse"
       x2="362.05"
       gradientTransform="translate(-111.02)"
       y1="685.29"
       x1="362.05"
       inkscape:collect="always">
      <stop
         id="stop4127"
         style="stop-color:#b9b9b9"
         offset="0" />
      <stop
         id="stop4129"
         style="stop-color:#cecece;stop-opacity:0"
         offset="1" />
    </linearGradient>
    <linearGradient
       id="linearGradient4278"
       y2="650.59003"
       gradientUnits="userSpaceOnUse"
       x2="361.54999"
       gradientTransform="translate(-144.02,0)"
       y1="685.29"
       x1="362.05"
       inkscape:collect="always">
      <stop
         id="stop4195"
         style="stop-color:#e9e337;stop-opacity:1"
         offset="0" />
      <stop
         id="stop4197"
         style="stop-color:#f9fca2;stop-opacity:0"
         offset="1" />
    </linearGradient>
    <linearGradient
       inkscape:collect="always"
       xlink:href="#linearGradient3951"
       id="linearGradient4181"
       gradientUnits="userSpaceOnUse"
       gradientTransform="translate(-144.02,0)"
       x1="340.55"
       y1="707.61"
       x2="371.8"
       y2="707.61" />
    <linearGradient
       inkscape:collect="always"
       xlink:href="#linearGradient4015"
       id="linearGradient4183"
       gradientUnits="userSpaceOnUse"
       gradientTransform="translate(-212.78,0)"
       x1="425.3"
       y1="686.33"
       x2="425.3"
       y2="700.68" />
    <linearGradient
       inkscape:collect="always"
       xlink:href="#linearGradient3993"
       id="linearGradient4185"
       gradientUnits="userSpaceOnUse"
       gradientTransform="translate(51.033,580)"
       x1="178.75"
       y1="127.11"
       x2="140.99"
       y2="127.11" />
    <linearGradient
       inkscape:collect="always"
       xlink:href="#linearGradient3951"
       id="linearGradient4187"
       gradientUnits="userSpaceOnUse"
       gradientTransform="translate(-144.02,0)"
       x1="340.55"
       y1="707.61"
       x2="371.8"
       y2="707.61" />
    <linearGradient
       inkscape:collect="always"
       xlink:href="#linearGradient4015"
       id="linearGradient4189"
       gradientUnits="userSpaceOnUse"
       gradientTransform="translate(-144.02,0)"
       x1="353.86"
       y1="690.18"
       x2="353.86"
       y2="693.88" />
    <linearGradient
       inkscape:collect="always"
       xlink:href="#linearGradient4204"
       id="linearGradient4191"
       gradientUnits="userSpaceOnUse"
       gradientTransform="translate(-144.02,0)"
       x1="316.3"
       y1="614.86"
       x2="388.55"
       y2="640.86" />
  </defs>
  <sodipodi:namedview
     id="base"
     fit-margin-left="0"
     inkscape:zoom="1"
     borderopacity="1.0"
     inkscape:current-layer="layer2"
     inkscape:cx="19.950352"
     inkscape:cy="138.69088"
     inkscape:window-maximized="1"
     showgrid="false"
     fit-margin-right="0"
     inkscape:document-units="px"
     bordercolor="#666666"
     inkscape:window-x="-9"
     guidetolerance="10"
     objecttolerance="10"
     inkscape:window-y="-9"
     fit-margin-bottom="0"
     inkscape:window-width="1920"
     inkscape:pageopacity="0.0"
     inkscape:pageshadow="2"
     pagecolor="#ffffff"
     gridtolerance="10000"
     inkscape:window-height="1005"
     fit-margin-top="0" />
  <g
     id="layer2"
     inkscape:groupmode="layer"
     transform="translate(-200.08 -570.09)">
    <g
       id="g4131"
       transform="translate(8.5013 -5.5)"
       inkscape:export-xdpi="310"
       inkscape:export-ydpi="310">
      <rect
         id="rect3835"
         style="color:#000000;fill:url(#linearGradient4252)"
         rx="0"
         ry="0"
         height="31.25"
         width="33.75"
         y="687.36"
         x="227.55" />
      <rect
         id="rect4011"
         style="color:#000000;fill:url(#linearGradient4254)"
         rx="0"
         ry="0"
         height="31.25"
         width="33.75"
         y="687.36"
         x="227.55" />
      <path
         id="path3869"
         d="m225.53 695.84v2.4375l17.75-2.4375h-17.75zm37.75 0.25-37.75 5.1875v2.0625l37.75-5.1875v-2.0625zm0 5.0625-37.75 5.1875v2.0625l37.75-5.1875v-2.0625zm0 5.0625-37.75 5.1875v2.0312l37.75-5.1875v-2.0312zm0 5.0312-37.75 5.1875v2.0625l37.75-5.1875v-2.0625z"
         style="fill:url(#linearGradient4256)"
         inkscape:connector-curvature="0" />
      <path
         id="rect3837"
         d="m225.17 688.22v5.25c0 1.385 1.115 2.5 2.5 2.5h33.5c1.385 0 2.5-1.115 2.5-2.5v-5.25z"
         sodipodi:nodetypes="csssscc"
         style="color:#000000;fill:url(#linearGradient4252)"
         inkscape:connector-curvature="0" />
      <path
         id="path4001"
         sodipodi:nodetypes="csssscc"
         style="color:#000000;fill:url(#linearGradient4260)"
         inkscape:connector-curvature="0"
         d="m225.17 688.22v5.25c0 1.385 1.115 2.5 2.5 2.5h33.5c1.385 0 2.5-1.115 2.5-2.5v-5.25z" />
      <path
         id="path3032"
         d="m244.42 581.09c-24.493 0-44.344 19.851-44.344 44.344 0 11.167 4.1252 21.359 10.938 29.156 3.878 4.0518 6.5995 9.9233 7.4688 16.656l0.0191 12.429c0 4.4527 3.5756 8.0284 8.0284 8.0284h35.78c4.4527 0 8.0284-3.5756 8.0284-8.0284l-0.0121-12.429c0.86451-6.7196 3.6103-12.574 7.4688-16.625 0.003-0.01-0.002-0.0215 0-0.0312 6.8156-7.7976 10.969-17.986 10.969-29.156 0-24.493-19.851-44.344-44.344-44.344z"
         sodipodi:nodetypes="sscccssccccss"
         style="opacity:.68293;fill:url(#linearGradient4262)"
         inkscape:connector-curvature="0" />
      <path
         id="rect3880"
         d="m227.53 718.59 4.25 4.75h25.25l4.25-4.75z"
         sodipodi:nodetypes="ccccc"
         style="color:#000000;fill:#808080"
         inkscape:connector-curvature="0" />
      <path
         id="rect3883"
         d="m231.77 723.34c0 1.0374 0.52146 2.0748 1.5644 2.8696l7.3055 5.568c2.0859 1.5898 5.4444 1.5898 7.5303 0l7.3055-5.568c1.043-0.79489 1.5644-1.8323 1.5644-2.8696z"
         sodipodi:nodetypes="csssscc"
         style="color:#000000;fill:#343434"
         inkscape:connector-curvature="0" />
      <path
         id="path4121"
         d="m244.42 581.09c-24.493 0-44.344 19.851-44.344 44.344 0 11.167 4.1252 21.359 10.938 29.156 3.878 4.0518 6.5995 9.9233 7.4688 16.656l0.0191 12.429c0 4.4527 3.5756 8.0284 8.0284 8.0284h35.78c4.4527 0 8.0284-3.5756 8.0284-8.0284l-0.0121-12.429c0.86451-6.7196 3.6103-12.574 7.4688-16.625 0.003-0.01-0.002-0.0215 0-0.0312 6.8156-7.7976 10.969-17.986 10.969-29.156 0-24.493-19.851-44.344-44.344-44.344z"
         sodipodi:nodetypes="sscccssccccss"
         style="fill:url(#linearGradient4264)"
         inkscape:connector-curvature="0" />
      <path
         id="path3948"
         d="m231.38 591.37c-13.547 6.7471-22.938 20.62-22.938 36.812 0 0.60674 0.12823 1.3296 0.1875 1.9688l11.938-2.0312c1.356-11.127 7.9158-20.595 17.25-25.906l-6.4375-10.844z"
         style="fill:#ffffff"
         inkscape:connector-curvature="0" />
    </g>
    <g
       id="g4210">
      <g
         transform="translate(151.5 -5.5)"
         id="g4153">
        <path
           inkscape:export-ydpi="310"
           inkscape:export-xdpi="310"
           id="path4189"
           sodipodi:nodetypes="sscccssccccss"
           style="opacity:0.68293002;fill:#f9ff00;fill-opacity:1"
           inkscape:connector-curvature="0"
           d="m 211.42,581.09 c -24.493,0 -44.344,19.851 -44.344,44.344 0,11.167 4.1252,21.359 10.938,29.156 3.878,4.0518 6.5995,9.9233 7.4688,16.656 l 0.0191,12.429 c 0,4.4527 3.5756,8.0284 8.0284,8.0284 l 35.78,0 c 4.4527,0 8.0284,-3.5756 8.0284,-8.0284 l -0.0121,-12.429 c 0.86451,-6.7196 3.6103,-12.574 7.4688,-16.625 0.003,-0.01 -0.002,-0.0215 0,-0.0312 6.8156,-7.7976 10.969,-17.986 10.969,-29.156 0,-24.493 -19.851,-44.344 -44.344,-44.344 z" />
        <rect
           inkscape:export-ydpi="310"
           inkscape:export-xdpi="310"
           id="rect4155"
           style="color:#000000;fill:url(#linearGradient4181)"
           rx="0"
           ry="0"
           height="31.25"
           width="33.75"
           y="687.35999"
           x="194.55" />
        <rect
           inkscape:export-ydpi="310"
           inkscape:export-xdpi="310"
           id="rect4157"
           style="color:#000000;fill:url(#linearGradient4183)"
           rx="0"
           ry="0"
           height="31.25"
           width="33.75"
           y="687.35999"
           x="194.55" />
        <path
           inkscape:export-ydpi="310"
           inkscape:export-xdpi="310"
           id="path4159"
           d="m 192.53,695.84 0,2.4375 17.75,-2.4375 -17.75,0 z m 37.75,0.25 -37.75,5.1875 0,2.0625 37.75,-5.1875 0,-2.0625 z m 0,5.0625 -37.75,5.1875 0,2.0625 37.75,-5.1875 0,-2.0625 z m 0,5.0625 -37.75,5.1875 0,2.0312 37.75,-5.1875 0,-2.0312 z m 0,5.0312 -37.75,5.1875 0,2.0625 37.75,-5.1875 0,-2.0625 z"
           style="fill:url(#linearGradient4185)"
           inkscape:connector-curvature="0" />
        <path
           inkscape:export-ydpi="310"
           inkscape:export-xdpi="310"
           id="path4161"
           d="m 192.17,688.22 0,5.25 c 0,1.385 1.115,2.5 2.5,2.5 l 33.5,0 c 1.385,0 2.5,-1.115 2.5,-2.5 l 0,-5.25 z"
           sodipodi:nodetypes="csssscc"
           style="color:#000000;fill:url(#linearGradient4187)"
           inkscape:connector-curvature="0" />
        <path
           inkscape:export-ydpi="310"
           inkscape:export-xdpi="310"
           id="path4163"
           sodipodi:nodetypes="csssscc"
           style="color:#000000;fill:url(#linearGradient4189)"
           inkscape:connector-curvature="0"
           d="m 192.17,688.22 0,5.25 c 0,1.385 1.115,2.5 2.5,2.5 l 33.5,0 c 1.385,0 2.5,-1.115 2.5,-2.5 l 0,-5.25 z" />
        <path
           inkscape:export-ydpi="310"
           inkscape:export-xdpi="310"
           id="path4165"
           d="m 211.42,581.09 c -24.493,0 -44.344,19.851 -44.344,44.344 0,11.167 4.1252,21.359 10.938,29.156 3.878,4.0518 6.5995,9.9233 7.4688,16.656 l 0.0191,12.429 c 0,4.4527 3.5756,8.0284 8.0284,8.0284 l 35.78,0 c 4.4527,0 8.0284,-3.5756 8.0284,-8.0284 l -0.0121,-12.429 c 0.86451,-6.7196 3.6103,-12.574 7.4688,-16.625 0.003,-0.01 -0.002,-0.0215 0,-0.0312 6.8156,-7.7976 10.969,-17.986 10.969,-29.156 0,-24.493 -19.851,-44.344 -44.344,-44.344 z"
           sodipodi:nodetypes="sscccssccccss"
           style="opacity:0.282;fill:url(#linearGradient4191)"
           inkscape:connector-curvature="0" />
        <path
           inkscape:export-ydpi="310"
           inkscape:export-xdpi="310"
           id="path4167"
           d="m 194.53,718.59 4.25,4.75 25.25,0 4.25,-4.75 z"
           sodipodi:nodetypes="ccccc"
           style="color:#000000;fill:#808080"
           inkscape:connector-curvature="0" />
        <path
           inkscape:export-ydpi="310"
           inkscape:export-xdpi="310"
           id="path4169"
           d="m 198.77,723.34 c 0,1.0374 0.52146,2.0748 1.5644,2.8696 l 7.3055,5.568 c 2.0859,1.5898 5.4444,1.5898 7.5303,0 l 7.3055,-5.568 c 1.043,-0.79489 1.5644,-1.8323 1.5644,-2.8696 z"
           sodipodi:nodetypes="csssscc"
           style="color:#000000;fill:#343434"
           inkscape:connector-curvature="0" />
        <path
           inkscape:export-ydpi="310"
           inkscape:export-xdpi="310"
           id="path4171"
           d="m 211.42,581.09 c -24.493,0 -44.344,19.851 -44.344,44.344 0,11.167 4.1252,21.359 10.938,29.156 3.878,4.0518 6.5995,9.9233 7.4688,16.656 l 0.0191,12.429 c 0,4.4527 3.5756,8.0284 8.0284,8.0284 l 35.78,0 c 4.4527,0 8.0284,-3.5756 8.0284,-8.0284 l -0.0121,-12.429 c 0.86451,-6.7196 3.6103,-12.574 7.4688,-16.625 0.003,-0.01 -0.002,-0.0215 0,-0.0312 6.8156,-7.7976 10.969,-17.986 10.969,-29.156 0,-24.493 -19.851,-44.344 -44.344,-44.344 z"
           sodipodi:nodetypes="sscccssccccss"
           style="fill:url(#linearGradient4278)"
           inkscape:connector-curvature="0" />
        <path
           inkscape:export-ydpi="310"
           inkscape:export-xdpi="310"
           id="path4173"
           d="m 198.38,591.37 c -13.547,6.7471 -22.938,20.62 -22.938,36.812 0,0.60674 0.12823,1.3296 0.1875,1.9688 l 11.938,-2.0312 c 1.356,-11.127 7.9158,-20.595 17.25,-25.906 l -6.4375,-10.844 z"
           style="fill:#ffffff"
           inkscape:connector-curvature="0" />
      </g>
    </g>
  </g>
  <metadata
     id="metadata53">
    <rdf:RDF>
      <cc:Work>
        <dc:format>image/svg+xml</dc:format>
        <dc:type
           rdf:resource="http://purl.org/dc/dcmitype/StillImage" />
        <cc:license
           rdf:resource="http://creativecommons.org/publicdomain/zero/1.0/" />
        <dc:publisher>
          <cc:Agent
             rdf:about="http://openclipart.org/">
            <dc:title>Openclipart</dc:title>
          </cc:Agent>
        </dc:publisher>
        <dc:title></dc:title>
        <dc:date>2012-01-29T20:01:03</dc:date>
        <dc:description>Light Bulbs</dc:description>
        <dc:source>https://openclipart.org/detail/167552/light-bulbs-by-printerkiller</dc:source>
        <dc:creator>
          <cc:Agent>
            <dc:title>PrinterKiller</dc:title>
          </cc:Agent>
        </dc:creator>
        <dc:subject>
          <rdf:Bag>
            <rdf:li>Light Bulbs on/off bulb</rdf:li>
          </rdf:Bag>
        </dc:subject>
      </cc:Work>
      <cc:License
         rdf:about="http://creativecommons.org/publicdomain/zero/1.0/">
        <cc:permits
           rdf:resource="http://creativecommons.org/ns#Reproduction" />
        <cc:permits
           rdf:resource="http://creativecommons.org/ns#Distribution" />
        <cc:permits
           rdf:resource="http://creativecommons.org/ns#DerivativeWorks" />
      </cc:License>
    </rdf:RDF>
  </metadata>
</svg>
